<svg width="31" height="61" viewBox="0 0 31 61" fill="none" xmlns="http://www.w3.org/2000/svg">
    <path fill-rule="evenodd" clip-rule="evenodd" d="M1.61615 0.595013C5.25949 -0.20563 28.7273 12.4389 30.1001 27.1705C30.6359 32.8692 23.5085 42.0753 11.9996 50.6032C10.1017 52.0091 8.78744 52.9607 7.15749 54.5841C7.05008 54.6836 8.11623 54.4411 9.54128 54.0256C12.9153 53.042 14.7113 53.0414 15.5577 54.0338C15.9606 54.5189 15.7323 54.7105 14.5085 54.9195C10.9975 55.511 7.66929 56.9247 3.32892 59.702C1.62263 60.7906 -1.07279 60.8261 1.38441 56.3467C3.46301 52.5575 4.41987 50.1071 5.35467 46.0602C5.96578 43.4377 7.57989 42.7739 8.13406 44.9088C8.32694 45.6484 7.73021 48.4372 6.77985 51.2608L6.28982 52.6997C10.9608 49.2235 11.2655 49.0209 14.828 45.9929C23.2884 38.7856 27.7179 32.2192 27.334 27.4312C26.3515 15.3257 10.6036 6.38781 1.25023 1.13373C0.993107 0.992684 1.19834 0.682707 1.61615 0.595013Z" fill="#BFFB4F"/>
</svg>