<svg width="79" height="75" viewBox="0 0 79 75" fill="none" xmlns="http://www.w3.org/2000/svg">
    <path fill-rule="evenodd" clip-rule="evenodd" d="M35.6079 28.0564C28.1818 21.952 22.1645 14.6825 17.6428 6.21291C16.7384 4.52595 14.6341 3.88246 12.9298 4.78681C11.2428 5.69115 10.5992 7.79554 11.5036 9.49989C16.4775 18.7695 23.0515 26.7347 31.1907 33.4303C32.6689 34.6477 34.8775 34.439 36.0949 32.9607C37.3123 31.4651 37.0862 29.2738 35.6079 28.0564Z" fill="#FF0505"/>
    <path fill-rule="evenodd" clip-rule="evenodd" d="M31.6476 4.28254C32.0302 11.3086 32.3781 18.3347 32.8129 25.3608C32.9347 27.2738 34.5868 28.7347 36.4999 28.613C38.4129 28.4912 39.8738 26.8391 39.752 24.926C39.3173 17.9173 38.9694 10.9087 38.5867 3.88257C38.4824 1.97474 36.8303 0.50517 34.9172 0.612996C33.0042 0.720822 31.5259 2.36428 31.6476 4.28254Z" fill="#FF0505"/>
    <path fill-rule="evenodd" clip-rule="evenodd" d="M57.4667 5.70873C53.0146 12.4218 47.9713 18.613 42.893 24.8739C41.6756 26.3695 41.9016 28.5609 43.3972 29.7609C44.8929 30.9783 47.0843 30.7522 48.2843 29.2565C53.5017 22.8391 58.6843 16.4565 63.2756 9.55214C64.3365 7.95214 63.8842 5.79569 62.2842 4.73483C60.7016 3.67396 58.5276 4.10873 57.4667 5.70873Z" fill="#FF0505"/>
    <path fill-rule="evenodd" clip-rule="evenodd" d="M74.7131 30.6652C62.6435 31.2043 49.8261 31.2217 37.7565 30.4565C35.8435 30.3521 34.1913 31.7956 34.0696 33.7261C33.9478 35.6391 35.4087 37.2913 37.3218 37.413C49.6348 38.1782 62.7132 38.1608 75.0262 37.6217C76.9392 37.5347 78.4347 35.9 78.3478 33.987C78.2608 32.0739 76.6261 30.5782 74.7131 30.6652Z" fill="#FF0505"/>
    <path fill-rule="evenodd" clip-rule="evenodd" d="M31.1812 32.8737C38.6247 41.9867 46.3291 50.9259 53.2335 60.4563C54.3639 62.0042 56.5379 62.3519 58.1031 61.2215C59.6509 60.091 59.9987 57.917 58.8682 56.3692C51.8769 46.7344 44.0857 37.691 36.5553 28.4736C35.3379 26.9953 33.1465 26.7693 31.6682 27.9867C30.1726 29.2041 29.9638 31.3954 31.1812 32.8737Z" fill="#FF0505"/>
    <path fill-rule="evenodd" clip-rule="evenodd" d="M33.4355 35.5179C35.3833 45.0136 35.9225 54.0919 36.0616 63.7093C36.079 65.6223 37.6616 67.1527 39.5747 67.1353C41.5051 67.1005 43.0355 65.5353 43.0007 63.6048C42.8616 53.5353 42.2877 44.0571 40.2529 34.1092C39.8529 32.231 38.0269 31.0135 36.1312 31.4135C34.253 31.7961 33.0355 33.6397 33.4355 35.5179Z" fill="#FF0505"/>
    <path fill-rule="evenodd" clip-rule="evenodd" d="M33.7495 34.7531C28.1147 46.0226 25.2103 58.5444 19.1756 69.5705C18.2538 71.2401 18.8798 73.3617 20.5667 74.2835C22.2537 75.2052 24.3582 74.5791 25.2799 72.9095C31.3495 61.8138 34.2885 49.2226 39.9755 37.8661C40.8277 36.1443 40.132 34.0574 38.4276 33.1878C36.7059 32.3356 34.619 33.0313 33.7495 34.7531Z" fill="#FF0505"/>
    <path fill-rule="evenodd" clip-rule="evenodd" d="M36.8506 32.1956C25.6332 34.1782 14.4332 35.0825 3.14621 36.4217C1.23317 36.6477 -0.123351 38.3695 0.102736 40.2826C0.328823 42.1956 2.05072 43.5521 3.96377 43.3261C15.3725 41.9869 26.7116 41.0478 38.0681 39.0478C39.9463 38.6999 41.2159 36.8912 40.8855 35.013C40.5376 33.1173 38.7462 31.8478 36.8506 32.1956Z" fill="#FF0505"/>
    <path fill-rule="evenodd" clip-rule="evenodd" d="M44.6564 26.9096C42.3433 26.8053 40.152 26.6487 37.8911 26.3182C35.9781 26.04 34.2215 27.3617 33.9433 29.2574C33.665 31.153 34.9866 32.927 36.8823 33.2052C39.3866 33.5705 41.8041 33.7444 44.3432 33.8487C46.2563 33.9357 47.891 32.4574 47.9605 30.5269C48.0475 28.6139 46.5694 26.9966 44.6564 26.9096Z" fill="#FF0505"/>
</svg>
